<svg width="136" height="36" viewBox="0 0 136 36" fill="none" xmlns="http://www.w3.org/2000/svg">
<path d="M17.2346 36C14.537 35.987 11.88 35.3426 9.47621 34.1183C7.07245 32.894 4.98873 31.1239 3.39189 28.9498C3.33447 28.8873 3.30214 28.8059 3.30112 28.721C3.30088 28.6271 3.33792 28.5368 3.40411 28.4701C3.4703 28.4034 3.56025 28.3657 3.65422 28.3652C3.70486 28.3655 3.75482 28.3769 3.8006 28.3985C3.84638 28.4202 3.88688 28.4515 3.91928 28.4905C10.7035 35.8974 22.2079 36.4039 29.6158 29.6197C29.9638 29.3014 30.2984 28.97 30.6197 28.6257C30.6677 28.5721 30.7309 28.5343 30.8009 28.5176C30.8709 28.5009 30.9443 28.5059 31.0114 28.5321C31.0784 28.5582 31.1359 28.6043 31.176 28.664C31.2162 28.7237 31.2371 28.7943 31.2361 28.8663C31.2334 28.9508 31.2013 29.0317 31.1453 29.095C29.5358 31.2392 27.4493 32.9794 25.0509 34.1779C22.6526 35.3764 20.0082 36.0002 17.3271 36H17.2346ZM32.7665 28.2481L10.9995 24.0263L15.4164 18.9213C15.4588 19.2099 15.5659 19.4851 15.7297 19.7263C15.8935 19.9676 16.1098 20.1687 16.3622 20.3147C16.5919 20.4481 16.847 20.5316 17.1111 20.5598L25.6908 22.2245C25.7282 22.2361 25.7681 22.237 25.806 22.2272C25.8439 22.2174 25.8783 22.1972 25.9053 22.1689C25.9324 22.1406 25.951 22.1054 25.9591 22.0671C25.9673 22.0288 25.9646 21.989 25.9513 21.9522L25.4721 20.636C25.4473 20.5819 25.4403 20.5213 25.4523 20.4631C25.4643 20.4048 25.4946 20.3519 25.5387 20.312C25.5829 20.2721 25.6386 20.2473 25.6978 20.2413C25.757 20.2352 25.8165 20.2482 25.8678 20.2784C25.8823 20.2872 25.8963 20.2969 25.9096 20.3074L25.9259 20.3228L33.2957 27.2024C33.3914 27.2807 33.4606 27.3866 33.4937 27.5057C33.5268 27.6248 33.5223 27.7512 33.4807 27.8677C33.4392 27.9841 33.3626 28.0848 33.2616 28.156C33.1605 28.2272 33.0399 28.2654 32.9162 28.2654C32.8658 28.2661 32.8154 28.2603 32.7665 28.2481ZM1.21701 27.9576C1.15192 27.8444 1.12557 27.713 1.14195 27.5834C1.15833 27.4538 1.21656 27.3331 1.30778 27.2396L15.8349 10.456L18.0352 16.8399C17.6381 16.6825 17.2 16.6611 16.7894 16.779C16.3788 16.8969 16.0189 17.1475 15.7659 17.4917L10.04 24.1053C10.0188 24.1251 10.0021 24.1492 9.99099 24.1759C9.97987 24.2027 9.97461 24.2315 9.97555 24.2605C9.97634 24.3096 9.99428 24.357 10.0263 24.3943C10.0583 24.4316 10.1023 24.4565 10.1507 24.4647L11.5287 24.7062C11.5717 24.7105 11.6131 24.7251 11.6494 24.7486C11.6857 24.7721 11.7159 24.8039 11.7374 24.8415C11.7748 24.9054 11.7853 24.9815 11.7665 25.0532C11.7478 25.1248 11.7014 25.1861 11.6376 25.2236C11.6239 25.2327 11.6089 25.2398 11.5931 25.2445L11.5695 25.2508L1.94409 28.2191C1.81182 28.2689 1.66614 28.27 1.53311 28.2223C1.40007 28.1746 1.28834 28.0811 1.21791 27.9585L1.21701 27.9576ZM95.3081 16.2399V27.3585H89.8264V8.64145H96.2249L104.379 19.7592V8.64781H104.488V8.64145H109.857V27.3585H103.459L95.3081 16.2399ZM120.145 27.3576V20.626L111.353 8.63873H117.87L123.4 16.1809L128.937 8.64054H135.457L126.662 20.6278V27.3585L120.145 27.3576ZM81.7486 27.3576L80.437 24.2215H72.2158L70.9023 27.3576H64.3123L73.0264 8.63964H79.6128L88.3268 27.3576H81.7486ZM74.2445 19.3924H78.4137L76.3259 14.4227L74.2445 19.3924ZM43.8225 27.3585V22.0938H58.3305C58.5241 22.0938 58.7099 22.0169 58.8468 21.8799C58.9838 21.743 59.0607 21.5572 59.0607 21.3635C59.0607 21.1699 58.9838 20.9841 58.8468 20.8472C58.7099 20.7102 58.5241 20.6333 58.3305 20.6333H49.0917C47.5014 20.6333 45.9762 20.0015 44.8517 18.877C43.7271 17.7524 43.0954 16.2272 43.0954 14.6369C43.0954 13.0466 43.7271 11.5214 44.8517 10.3968C45.9762 9.2723 47.5014 8.64054 49.0917 8.64054H63.5998V13.9053H49.0917C48.8981 13.9053 48.7123 13.9822 48.5754 14.1192C48.4384 14.2561 48.3615 14.4419 48.3615 14.6356C48.3615 14.8292 48.4384 15.015 48.5754 15.1519C48.7123 15.2889 48.8981 15.3658 49.0917 15.3658H58.3305C59.1241 15.356 59.9117 15.5039 60.6477 15.8009C61.3838 16.0978 62.0535 16.5379 62.6182 17.0956C63.1828 17.6534 63.6311 18.3177 63.9371 19.05C64.2431 19.7823 64.4006 20.5681 64.4006 21.3617C64.4006 22.1554 64.2431 22.9412 63.9371 23.6735C63.6311 24.4058 63.1828 25.0701 62.6182 25.6278C62.0535 26.1855 61.3838 26.6256 60.6477 26.9226C59.9117 27.2195 59.1241 27.3674 58.3305 27.3576L43.8225 27.3585ZM32.5668 25.6402C32.5412 25.5961 32.5255 25.547 32.5208 25.4962C32.5161 25.4454 32.5225 25.3942 32.5395 25.3461C35.5613 15.7244 30.2131 5.47988 20.5949 2.45809C20.1713 2.32496 19.7435 2.20756 19.3114 2.1059C19.262 2.09579 19.2154 2.07504 19.1748 2.0451C19.1342 2.01516 19.1006 1.97675 19.0763 1.93253C19.0298 1.8521 19.0169 1.7566 19.0404 1.66672C19.0638 1.57684 19.1217 1.49982 19.2016 1.45234C19.276 1.41041 19.3632 1.39717 19.4467 1.41513C28.9541 2.60151 35.7038 11.2738 34.5156 20.7867C34.3095 22.4391 33.8665 24.0532 33.2004 25.5794C33.1858 25.6233 33.1627 25.6638 33.1325 25.6987C33.1022 25.7336 33.0654 25.7622 33.0241 25.7829C32.9828 25.8035 32.9378 25.8158 32.8917 25.8191C32.8457 25.8223 32.7994 25.8165 32.7556 25.8018C32.6738 25.775 32.6048 25.7187 32.5622 25.6439L32.5668 25.6402ZM1.53925 25.603C1.46596 25.5604 1.41101 25.4922 1.38493 25.4115C-2.36212 16.5876 1.75619 6.4003 10.5792 2.65779C12.1136 2.00675 13.7339 1.58028 15.3901 1.39153C15.4824 1.37431 15.5778 1.39448 15.6552 1.44759C15.7327 1.50071 15.7859 1.58241 15.8031 1.67474C15.8203 1.76706 15.8001 1.86244 15.747 1.93989C15.6939 2.01735 15.6122 2.07053 15.5199 2.08775C5.68115 4.29622 -0.502207 14.0623 1.70808 23.8992C1.80551 24.3331 1.91867 24.7628 2.04757 25.1882C2.07717 25.277 2.07027 25.374 2.0284 25.4577C1.98652 25.5415 1.9131 25.6052 1.82427 25.6348C1.78823 25.6466 1.75056 25.6528 1.71262 25.6529C1.64986 25.6529 1.58831 25.6357 1.53471 25.603H1.53925ZM18.5299 20.1567C18.864 19.8912 19.1008 19.5226 19.2036 19.1083C19.3064 18.6941 19.2693 18.2575 19.0981 17.8666L16.2461 9.58638C16.239 9.55809 16.2263 9.53149 16.2089 9.50812C16.1914 9.48475 16.1695 9.46507 16.1444 9.45023C16.1012 9.42691 16.0513 9.41915 16.003 9.42824C15.9548 9.43733 15.9111 9.46272 15.8793 9.50015L14.9753 10.574C14.9403 10.6211 14.8914 10.656 14.8356 10.6738C14.7797 10.6917 14.7197 10.6916 14.6639 10.6736C14.6081 10.6556 14.5593 10.6205 14.5245 10.5733C14.4896 10.5261 14.4705 10.4692 14.4697 10.4106C14.4697 10.3938 14.4715 10.3771 14.4751 10.3607V10.3389L16.7571 0.499244C16.7765 0.361042 16.8451 0.234483 16.9504 0.142782C17.0556 0.0510808 17.1903 0.000387021 17.3299 0C17.4604 9.66675e-05 17.5873 0.0426642 17.6914 0.12127C17.7956 0.199875 17.8713 0.310246 17.9072 0.435703L25.1417 21.4402L18.5299 20.1567Z" fill="white"/>
</svg>
