<svg width="213" height="36" viewBox="0 0 213 36" fill="none" xmlns="http://www.w3.org/2000/svg">
<path fill-rule="evenodd" clip-rule="evenodd" d="M50.2843 26.1581L50.7616 27.3804L52.6276 29.4211C53.0627 29.7598 53.6014 30.0302 54.1212 30.2268C55.4053 30.7122 55.8691 30.8172 57.249 31.1036C57.5604 31.1682 57.9704 31.2033 58.3455 31.2823L60.6617 31.5537C62.7812 31.6341 66.704 31.7576 68.5706 31.5583C68.9501 31.5177 68.7314 31.4966 69.0884 31.455C69.691 31.3848 70.3537 31.4353 70.9149 31.2985C71.3166 31.2006 71.6807 31.2361 72.1008 31.1221C72.5034 31.0128 72.7078 30.9543 73.1583 30.895L74.1977 30.5925C74.579 30.4996 74.8399 30.4095 75.1807 30.288L77.9476 28.8093C77.9613 28.7978 77.9807 28.7815 77.9944 28.7699L78.6507 28.1501C78.7009 28.0981 78.768 28.0263 78.8146 27.9748L79.5779 26.8655C79.881 26.2349 80.1297 25.5109 80.1899 24.784C80.2391 24.1908 80.213 23.44 80.0677 22.8914C80.0389 22.7827 80.0259 22.7171 79.9961 22.6136L79.7257 21.7851C79.3959 21.1048 78.9577 20.4766 78.3659 19.9965L77.1155 19.2137C77.0981 19.2051 77.076 19.1945 77.0586 19.186L76.7705 19.0465C76.7524 19.038 76.7305 19.0274 76.7125 19.0189C76.0805 18.7227 75.3444 18.5594 74.71 18.3925L73.6257 18.2137C73.0107 18.0897 72.2618 18.1943 71.6287 18.1278C71.2693 18.09 71.4497 18.0758 71.1802 18.0362C70.3647 17.9167 69.3647 18.0647 68.6491 17.9036C67.9207 17.7394 66.9321 17.9145 66.1568 17.7517C65.409 17.5947 64.4604 17.658 63.6368 17.6092C63.3788 17.594 63.2593 17.5454 63.1047 17.5162C62.4026 17.3835 61.6315 17.378 60.9965 16.9741C60.4683 16.6381 60.6765 16.1717 61.1857 15.8653C62.1754 15.2699 64.8194 15.2523 65.8557 15.312L66.3798 15.4056C67.3127 15.6337 68.5374 15.8169 69.0536 16.7319L69.2503 17.156L79.1758 17.1401C79.175 16.4096 78.9424 15.3253 78.6607 14.6898L77.0883 12.4364C76.4476 11.825 75.6907 11.4498 74.8855 11.0716L73.4078 10.5186C72.8221 10.384 72.4293 10.2236 71.8845 10.1645C71.1707 10.087 70.4112 9.86438 69.6812 9.82407C69.2926 9.80264 68.8207 9.82399 68.4494 9.75485L62.1107 9.67432L57.5947 10.3168C57.358 10.3717 57.2428 10.3949 57.048 10.4504L55.8333 10.8548C55.8091 10.8651 55.7422 10.8953 55.7177 10.9048C54.3574 11.4321 52.9973 12.0592 52.0963 13.2379C52.0273 13.3282 51.942 13.4631 51.8552 13.5853C51.7014 13.8018 51.7367 13.7313 51.5922 14.0029L51.5059 14.1709C51.4973 14.1882 51.4863 14.2101 51.4778 14.2277C51.4725 14.2384 51.3982 14.3954 51.3956 14.4012L51.0552 15.3304C50.6574 16.749 50.996 18.8836 51.9275 20.1809L52.1609 20.457C52.1728 20.4697 52.1905 20.4875 52.2024 20.5002L52.5862 20.8825C52.68 20.9694 52.6712 20.9645 52.7671 21.0424L54.3913 21.9695C54.4131 21.9793 54.509 22.0227 54.5686 22.0493L55.3476 22.2868C56.4782 22.6139 57.1637 22.4942 57.8799 22.6519L60.153 22.8991C60.5599 22.9337 61.0204 22.9072 61.4246 22.9555C61.7773 22.9976 61.5648 23.0177 61.9425 23.0617C63.119 23.199 64.4478 23.1713 65.5388 23.379C66.433 23.5491 67.7472 23.4886 68.6692 23.7424C68.7896 23.7754 68.8258 23.7777 68.9432 23.8173C69.5701 24.0291 70.0207 24.4707 69.8187 25.1813C69.812 25.2047 69.727 25.3898 69.7105 25.4154C69.529 25.6983 69.7578 25.4986 69.4013 25.696C68.1784 26.3736 64.4916 26.375 63.2764 26.0008L61.7714 25.2931C61.7572 25.2822 61.7379 25.2661 61.724 25.2549L60.7435 23.9417C60.7107 23.8626 60.7526 24.034 60.6691 23.7696L49.9785 23.7788L50.2843 26.1581Z" fill="white"/>
<path fill-rule="evenodd" clip-rule="evenodd" d="M201.586 20.2258C201.739 20.1513 201.665 20.1837 201.784 20.0856L202.129 19.7501C202.142 19.7381 202.159 19.7199 202.172 19.708L202.636 19.3241C202.649 19.312 202.666 19.2935 202.678 19.2813L202.763 19.1972C202.776 19.1852 202.793 19.1672 202.805 19.1554L203.291 18.7032C203.423 18.5745 203.492 18.5131 203.598 18.4149C203.616 18.3981 203.668 18.35 203.686 18.333L204.123 17.9176C204.128 17.9127 204.234 17.8119 204.252 17.7941L205.186 16.9466C205.205 16.9299 205.257 16.8833 205.275 16.8668L207.525 14.7823C207.538 14.7705 207.557 14.7534 207.569 14.7417L208.84 13.5439C208.853 13.532 208.871 13.5152 208.884 13.5032L210.522 11.9968C210.535 11.9848 210.554 11.9684 210.567 11.9564C210.585 11.9395 210.636 11.8912 210.654 11.8741L211.22 11.3357C211.326 11.2329 211.259 11.288 211.39 11.1675C211.519 11.0498 211.429 11.1305 211.529 11.0507C211.613 10.9828 211.648 10.9634 211.721 10.904L212.066 10.3727C210.667 10.3733 200.912 10.2732 200.486 10.3906C200.298 10.4424 200.173 10.6138 200.021 10.7583L198.88 11.827C198.712 11.9601 198.806 11.8682 198.642 12.0134L198.385 12.2651C198.367 12.282 198.314 12.3288 198.296 12.3455L195.912 14.5501C195.792 14.6583 195.788 14.6614 195.691 14.7559L192.915 17.3349C192.903 17.3469 192.885 17.3643 192.872 17.3764L192.222 18.0016C192.209 18.0133 192.19 18.0301 192.177 18.0414L191.668 18.4716C191.655 18.4826 191.636 18.5001 191.623 18.5104C191.487 18.6161 191.56 18.5899 191.378 18.6497C191.375 17.1558 191.511 11.3779 191.328 10.3728L181.354 10.3718C181.172 11.3877 181.305 18.9342 181.305 20.6176C181.305 22.9983 181.183 28.9287 181.327 30.8847C182.499 30.881 189.931 31.0203 190.319 30.7982L191.057 30.0918C191.132 30.0219 191.153 30.0054 191.235 29.9304L194.847 26.4883C194.86 26.4767 194.877 26.4579 194.891 26.4471C194.905 26.4362 194.924 26.4198 194.939 26.4099C195.284 26.1863 195.415 26.4055 195.637 26.6184L197.225 28.0886C197.239 28.0996 197.259 28.1149 197.272 28.1261L198.012 28.8306C198.025 28.8428 198.042 28.8606 198.055 28.873C198.068 28.8852 198.085 28.9034 198.098 28.9158L199.489 30.2439C199.501 30.2561 199.519 30.2741 199.531 30.2865L199.616 30.372C200.199 30.9277 200.446 30.885 201.296 30.8836C204.882 30.8778 209.456 30.9923 212.904 30.8676C212.771 30.5374 212.399 30.3111 212.151 30.0708L211.699 29.6746C211.685 29.6634 211.665 29.6482 211.652 29.6369L211.39 29.3894C211.378 29.3775 211.361 29.3595 211.348 29.3477L211.038 29.0618C211.025 29.0497 211.008 29.0316 210.995 29.0193L209.859 27.9451C209.846 27.933 209.829 27.915 209.816 27.9028C209.804 27.8908 209.786 27.8722 209.774 27.8602C209.761 27.8483 209.743 27.8302 209.73 27.8183L209.638 27.7397C209.624 27.7284 209.604 27.7135 209.59 27.7024L209.353 27.5169C209.34 27.5053 209.322 27.4876 209.31 27.4759L207.306 25.5695C207.202 25.4815 207.179 25.4791 207.064 25.3862L206.497 24.852C206.484 24.84 206.465 24.8234 206.452 24.8112L202.633 21.2333C202.62 21.2216 202.602 21.2041 202.589 21.1926C202.576 21.1811 202.556 21.1648 202.543 21.1537C202.53 21.1423 202.51 21.1272 202.496 21.116L201.586 20.2258Z" fill="white"/>
<path fill-rule="evenodd" clip-rule="evenodd" d="M130.308 16.2678L131.62 16.2667C132.518 16.2665 137.164 16.1113 137.693 16.4148C138.164 16.6849 138.27 16.7897 138.542 17.2626C138.944 17.9623 138.623 19.1917 137.667 19.6092C137.134 19.8424 131.633 19.7215 130.307 19.7208L130.307 16.7934L130.308 16.2678ZM121.224 30.8723L130.195 30.8839L130.198 24.938L135.358 24.9739L136.326 26.619C136.336 26.6343 136.35 26.6548 136.36 26.6703L137.958 29.4029C138.363 30.031 138.655 30.8187 139.098 30.8675C139.985 30.9653 147.163 30.8856 148.716 30.8843C148.694 30.5533 148.664 30.5794 148.516 30.3186C148.506 30.3024 148.494 30.2811 148.484 30.2649C148.475 30.2486 148.462 30.2271 148.453 30.2108L148.391 30.1025C148.381 30.0861 148.369 30.0647 148.36 30.0484L144.896 24.249C143.977 22.794 144.455 23.4005 145.739 22.2436C145.752 22.2318 145.77 22.2144 145.783 22.2027L145.96 22.0399C145.973 22.0282 145.992 22.0116 146.005 21.9998C146.022 21.9828 146.073 21.9346 146.091 21.9175C146.103 21.9057 146.12 21.8876 146.132 21.8756L146.662 21.2981C146.828 21.093 147.067 20.7369 147.206 20.4858L147.649 19.5671C148.305 17.7402 148.29 15.5106 147.272 13.8033L145.783 11.975C145.769 11.964 145.749 11.949 145.735 11.9382L144.499 11.1332C143.723 10.7423 143.977 10.9424 143.391 10.7146C142.914 10.5291 142.962 10.5035 142.386 10.5129L121.187 10.4834L121.224 30.8723Z" fill="white"/>
<path fill-rule="evenodd" clip-rule="evenodd" d="M164.929 17.8479L165.724 19.3131C165.819 19.4704 165.738 19.3269 165.819 19.4739L167.035 21.8246C167.06 21.8728 167.106 21.9576 167.123 21.9905L167.391 22.49C167.401 22.506 167.415 22.5262 167.424 22.5424L167.677 23.0068C167.68 22.9965 167.693 23.033 167.699 23.0483C166.881 23.1187 162.895 23.134 162.165 23.0418L164.929 17.8479ZM158.052 30.8833C158.146 30.6642 158.054 30.8832 158.137 30.7365L158.196 30.6307C158.239 30.5523 158.307 30.4174 158.342 30.3493L158.944 29.2486C159.05 29.0483 159.161 28.8563 159.208 28.6583L170.649 28.653C170.755 29.1195 171.095 29.5213 171.318 29.9519L171.805 30.8837L180.803 30.885C180.779 30.4985 180.787 30.7053 180.697 30.5122L178.174 25.813C178.166 25.7957 178.154 25.7737 178.145 25.7565C178.137 25.7392 178.126 25.717 178.117 25.6999L177.834 25.2158C177.802 25.1618 177.781 25.1206 177.744 25.0495C177.735 25.0324 177.725 25.0101 177.716 24.993L177.659 24.8807C177.642 24.8468 177.598 24.7629 177.572 24.7134C177.563 24.6965 177.551 24.6748 177.542 24.6578L177.482 24.5465C177.458 24.5016 177.425 24.4387 177.394 24.3797L175.509 20.8292C175.447 20.7174 175.443 20.7183 175.349 20.5637L173.954 17.9644C173.894 17.8648 173.939 17.9439 173.862 17.8001L173.103 16.3531C173.091 16.3301 173.057 16.2636 173.045 16.2404L171.374 13.1521C171.34 13.0942 171.322 13.0571 171.284 12.985L169.857 10.3726L160 10.3783L158.431 13.2656C158.327 13.4662 158.348 13.434 158.248 13.5968L157.916 14.2008C157.679 14.6545 157.485 15.0241 157.244 15.48L152.904 23.5504C152.856 23.6446 152.791 23.7671 152.73 23.8843L149.685 29.5897C149.62 29.7127 149.659 29.6375 149.596 29.7565L149.236 30.4206C149.223 30.4422 149.181 30.5003 149.169 30.5222L149.061 30.8779L158.052 30.8833Z" fill="white"/>
<path fill-rule="evenodd" clip-rule="evenodd" d="M111.135 16.8122C111.194 16.5399 111.727 16.6568 111.99 16.6596L119.332 16.6559L119.334 10.5295H92.7935L92.7896 16.7767L101.114 16.7764L101.116 30.8838L111.092 30.881L111.135 16.8122Z" fill="white"/>
<path fill-rule="evenodd" clip-rule="evenodd" d="M21.5841 14.3327C21.6515 15.6274 22.1655 16.7635 22.6019 17.8978L23.1873 19.0129C23.2272 19.0859 23.3293 19.268 23.3736 19.3367C23.4923 19.5213 23.6636 19.7795 23.8193 19.9966C24.0388 20.3029 24.1077 20.425 24.3298 20.6753L26.0212 22.3757C26.1547 22.4851 26.0958 22.44 26.2046 22.5352L26.4369 22.7355C27.056 23.2312 27.7363 23.5823 28.4202 23.9754L32.7873 26.4908C32.9242 26.5681 32.8555 26.5282 32.9486 26.5857C32.9644 26.5954 32.985 26.6092 33.0008 26.6191L33.4823 26.9015C33.5317 26.9287 33.7536 27.0539 33.8081 27.0841L34.0283 27.2048C34.1624 27.282 34.0335 27.2047 34.1871 27.3005L35.6478 28.1554C36.0373 28.2673 35.9447 28.1698 36.0594 28.0503L36.2556 27.7301C36.3056 27.6518 36.4203 27.5021 36.4688 27.4317C37.0476 26.593 37.7452 25.8117 38.4953 25.1257C38.7539 24.8892 38.9944 24.746 39.0759 24.4285C38.8351 24.3254 38.9917 24.4194 38.8219 24.1118L37.0446 21.0433C36.9947 20.9535 36.9669 20.9024 36.9252 20.8247L34.1104 15.9895C34.1013 15.9728 34.0894 15.951 34.0802 15.9344C34.0709 15.9178 34.0588 15.8962 34.0496 15.8796L32.9649 13.9928C32.9304 13.9395 32.8823 13.8673 32.8637 13.8366L31.4656 11.4132C31.4366 11.3607 31.3967 11.2905 31.3746 11.2501C31.3622 11.2276 31.3269 11.1623 31.3147 11.1398L28.8824 6.9418C28.7893 6.77504 28.7916 6.79103 28.6868 6.6269C28.582 6.46295 28.67 6.61245 28.5587 6.41482L26.3476 2.52002C26.1721 2.53482 26.1399 2.53167 25.9684 2.57904L25.8481 2.62198C25.8285 2.62861 25.807 2.63797 25.7872 2.64477L25.2103 2.82939C23.65 3.30042 23.191 3.18435 21.4621 3.4256L21.4495 13.309L21.5841 14.3327Z" fill="white"/>
<path fill-rule="evenodd" clip-rule="evenodd" d="M6.45825 29.4558C6.57271 29.8492 6.77502 30.1397 6.94315 30.4985L7.71853 32.6122C7.72466 32.6317 7.73333 32.6529 7.73928 32.6728C7.74524 32.6929 7.7534 32.7139 7.75893 32.7345L8.02391 33.8378C8.02884 33.8532 8.04347 33.915 8.04712 33.903C8.05078 33.8911 8.05971 33.9476 8.07111 33.9832L33.6484 33.9841C33.7264 32.8652 34.3684 31.2065 34.8619 30.1595C34.9366 30.001 34.8947 30.0868 34.9737 29.9316L35.1829 29.3473L26.2408 24.2867C24.0917 23.2516 20.687 22.6389 18.1878 23.3426C17.4718 23.5443 16.6876 23.7292 15.9821 24.024L13.0474 25.5951C13.0318 25.6049 13.0114 25.6189 12.9958 25.6288L12.5651 25.8777C12.5426 25.89 12.4779 25.9256 12.4553 25.938C12.3779 25.9806 12.2592 26.0461 12.2364 26.0585C12.2315 26.0613 12.1118 26.1249 12.0713 26.1477L10.8302 26.8596C10.7179 26.924 10.7403 26.9132 10.6198 26.9897C10.6042 26.9997 10.584 27.014 10.5684 27.0238L9.80752 27.4525C9.75157 27.4826 9.6968 27.5097 9.6417 27.5409C9.40163 27.6771 9.13427 27.8513 8.84054 28.0139C8.73994 28.0695 8.70788 28.0877 8.62122 28.1347L8.24501 28.3543C8.22945 28.3643 8.20938 28.3789 8.19382 28.3888C8.04338 28.4847 8.17545 28.4052 8.03513 28.4868L7.43102 28.8146C7.41418 28.8237 7.39207 28.8348 7.37531 28.8438L6.45825 29.4558Z" fill="white"/>
<path fill-rule="evenodd" clip-rule="evenodd" d="M2.56982 24.4531L4.40123 26.416C4.41262 26.4291 4.42989 26.4472 4.4412 26.4605L5.56542 27.9688C5.80999 28.2974 5.82053 28.2417 6.17277 28.0664C6.19615 28.0547 6.2584 28.0178 6.28043 28.0052C6.40781 27.9322 6.35696 27.9609 6.43834 27.9098L15.9979 22.0891L18.2727 19.3493C19.069 17.9384 19.9416 16.0381 20.0562 14.4199L20.2049 3.51879L18.9411 3.35883C18.5917 3.33391 18.5956 3.29318 18.3985 3.24853C17.7779 3.10788 17.1723 3.11987 16.5424 2.88184L15.7836 2.62247C15.7642 2.61592 15.743 2.60674 15.7234 2.60053C15.569 2.5524 15.571 2.5484 15.3785 2.52612C15.2473 2.68217 15.0879 2.9486 14.9835 3.14045L14.646 3.73827C14.6361 3.75366 14.6216 3.77373 14.6116 3.78913L12.7749 6.96475C12.7613 6.98618 12.7204 7.04604 12.7068 7.06756L12.3059 7.77066C12.2924 7.79226 12.2514 7.85273 12.2375 7.87407L11.1221 9.81577C11.1129 9.83244 11.101 9.85429 11.0918 9.87088L7.81419 15.5169C7.67158 15.7381 7.57073 15.9539 7.41 16.2168C7.37505 16.274 7.36859 16.2799 7.30914 16.3724L7.11883 16.6929C7.10973 16.7096 7.09859 16.7318 7.08949 16.7485L6.04317 18.5879C6.03364 18.6038 6.02072 18.625 6.01085 18.6407L5.21803 19.9754C5.20902 19.9921 5.19745 20.0139 5.18852 20.0307L5.03945 20.3049C4.89242 20.5756 4.74683 20.7857 4.62582 20.9977L3.07861 23.6965C3.06492 23.7213 2.8303 24.3167 2.56982 24.4531Z" fill="white"/>
<path fill-rule="evenodd" clip-rule="evenodd" d="M81.3972 30.7507L90.935 30.7492L90.9371 10.5681L81.4123 10.5726L81.3972 30.7507Z" fill="white"/>
<path fill-rule="evenodd" clip-rule="evenodd" d="M7.47622 34.8476C7.26116 34.7461 7.25249 34.5103 7.19168 34.2488L6.74761 32.4807C6.74004 32.4613 6.73094 32.4394 6.72371 32.4197L4.44866 27.8925C4.33998 27.7334 4.38998 27.7907 4.27926 27.6432L3.88434 27.1815C3.75448 27.0244 3.85032 27.138 3.73952 26.9894L1.6649 24.9815C1.65223 24.9682 1.63335 24.9505 1.62255 24.936C1.35816 24.581 1.79603 24.2079 1.98031 23.8752L4.72282 19.1387C5.39582 18.0824 5.91371 16.9746 6.59292 15.9097C6.60287 15.8942 6.61733 15.8738 6.62728 15.8584L6.90867 15.3766C6.91777 15.36 6.92993 15.3386 6.93912 15.322L10.4361 9.30015C10.5597 9.10166 10.6191 8.96348 10.7397 8.75572L11.2131 7.95245C11.2761 7.83611 11.2776 7.83186 11.3318 7.73287C11.4028 7.60353 11.4304 7.5548 11.4879 7.46355C11.4978 7.44782 11.5118 7.42733 11.5219 7.41168L12.1079 6.38407C12.1723 6.27275 12.1738 6.27964 12.2729 6.12453C12.3863 5.94696 12.4747 5.76847 12.5486 5.6353L13.4936 4.0295C13.6021 3.85534 13.6718 3.70278 13.7651 3.5378C13.8531 3.38244 13.8475 3.40089 13.9299 3.27495L14.092 3.01269C14.1045 2.99032 14.1385 2.92424 14.1506 2.90154L14.2397 2.73554C14.2867 2.64872 14.3416 2.54897 14.3595 2.51657C14.5606 2.15158 14.8263 1.86151 14.932 1.49252C15.3776 1.53249 15.7713 1.72119 16.2109 1.85938L17.499 2.19631C18.1924 2.29555 18.7892 2.48638 19.5361 2.51597L21.3266 2.53885C22.0775 2.53868 24.1848 2.32123 24.9267 2.03686L25.2289 1.91993C25.6852 1.77375 26.2708 1.53657 26.7185 1.49363C26.7678 1.67162 27 1.99094 27.1321 2.23407C27.2812 2.50832 27.3972 2.72933 27.5319 2.93717L28.4984 4.60632C28.5266 4.65819 28.5579 4.71857 28.588 4.77087L28.7869 5.08365C28.7968 5.09938 28.8101 5.12038 28.8198 5.13628C28.9008 5.26903 28.9809 5.42465 29.0314 5.51667L31.7429 10.1982C31.7563 10.2196 31.7972 10.2794 31.8107 10.3009C31.8207 10.3166 31.8343 10.3373 31.8441 10.3532L32.0886 10.7899C32.1178 10.8424 32.1558 10.9088 32.1797 10.9525L32.2977 11.1734C32.375 11.3129 32.3294 11.236 32.3905 11.3345L32.9291 12.2437C32.939 12.2593 32.9536 12.2793 32.9635 12.2948L33.1543 12.6128C33.1634 12.6294 33.1748 12.6515 33.184 12.6683C33.1932 12.685 33.2048 12.7068 33.2139 12.7237L34.1675 14.4014C34.2485 14.546 34.1998 14.4626 34.2616 14.5618L35.9498 17.463C35.959 17.4797 35.9705 17.5017 35.9797 17.5184L36.3941 18.2107C36.4451 18.3015 36.4641 18.3411 36.5132 18.4307L37.2247 19.6734C37.3695 19.9313 37.4924 20.0949 37.6404 20.363C37.6864 20.4462 37.7928 20.6418 37.8496 20.7479C37.9513 20.9374 37.9898 20.9991 38.0698 21.1215L38.474 21.8234C38.6201 22.0668 38.7617 22.2915 38.9151 22.5732L39.7961 24.0732C40.4279 25.0532 39.881 24.9947 39.0503 25.7646L37.9151 27.0082C37.1492 27.9203 36.4616 28.8655 35.9548 29.8962L35.8139 30.1803C35.8053 30.1977 35.7942 30.2197 35.7854 30.237L35.6149 30.5752C35.6069 30.5932 35.5967 30.6152 35.5888 30.6335L34.7755 32.8797C34.673 33.1976 34.5901 33.6877 34.5163 33.9761C34.2578 34.9848 34.5271 34.7552 34.0828 34.8525C33.6907 34.9383 9.18458 34.8473 7.47622 34.8476ZM0 25.1492C0.321874 25.2599 1.05865 25.9194 1.33137 26.1704L3.01073 27.889C3.02246 27.9026 3.03922 27.9212 3.05104 27.9348L3.21134 28.1173C3.99523 29.0587 4.60768 30.1887 5.11766 31.3069L5.24233 31.6053C5.30985 31.7883 5.31648 31.8267 5.37899 31.9778L5.48316 32.2152C5.4909 32.2338 5.50034 32.2558 5.50774 32.2747L5.55357 32.3971C5.89424 33.3625 6.27386 34.9197 6.28602 36L35.3532 35.9998C35.4171 34.7456 35.7028 33.5761 36.0712 32.4673L37.4691 29.5386C37.6154 29.2801 37.7388 29.1133 37.868 28.9158L41.0082 25.6017C41.2209 25.4558 41.3689 25.2432 41.647 25.1621C41.6213 24.9692 41.6549 25.0894 41.5923 24.9188C41.5849 24.8985 41.576 24.8725 41.567 24.8513C41.3166 24.2637 40.6622 23.3282 40.3215 22.6976L38.9834 20.381C38.9821 20.3788 38.9238 20.2911 38.8822 20.2263L35.1393 13.7719C35.054 13.6388 34.9622 13.4664 34.8923 13.3386L30.1459 5.16792C30.0473 5.00737 29.9882 4.87564 29.9062 4.72937C29.8337 4.6002 29.8622 4.6502 29.8111 4.56839L27.162 0C26.1138 0.35776 25.2658 0.949123 23.5375 1.17312C23.1018 1.22967 23.115 1.29617 22.6928 1.32967C20.4082 1.51081 21.7211 1.46676 19.1134 1.33741C18.4045 1.30221 17.3322 1.09896 16.7015 0.851243L15.3091 0.377829C15.2907 0.370006 15.2688 0.360056 15.2505 0.352062L14.8338 0.166422C14.5247 0.0255968 14.7325 0.182919 14.5288 0.000340157L12.714 3.08004C12.5782 3.32784 12.3958 3.61306 12.2714 3.82847C12.1791 3.98826 12.1444 4.07176 12.0636 4.21403L11.2828 5.55816C11.273 5.5739 11.2589 5.59448 11.2491 5.61021L11.1473 5.76421C11.0651 5.89696 10.9587 6.10089 10.9046 6.19987L6.25157 14.2096C6.15327 14.365 6.22776 14.2396 6.12538 14.4227L5.23485 15.9959C5.15083 16.1382 5.23451 16.0016 5.13569 16.1535L4.88032 16.5777C4.87113 16.5945 4.85965 16.6164 4.85047 16.6332L1.13919 23.0342C1.0686 23.1631 0.968597 23.3429 0.89861 23.471L0.677508 23.8473C0.612623 23.9494 0.491867 24.1552 0.426132 24.2739L0.0967747 24.8778C0.0458362 24.995 0.0605479 24.8839 0 25.1492Z" fill="white"/>
</svg>
