<svg width="25" height="25" viewBox="0 0 25 25" fill="none" xmlns="http://www.w3.org/2000/svg">
<path d="M2.69445 0.231934H23.2673C23.7393 0.231934 24.1679 0.424513 24.478 0.734672C24.7884 1.04483 24.9808 1.47355 24.9808 1.94542V22.5184C24.9808 22.9903 24.7884 23.4188 24.478 23.7292C24.1679 24.0394 23.7393 24.2319 23.2673 24.2319H2.69445C2.22257 24.2319 1.79385 24.0394 1.4837 23.7292C1.17354 23.419 0.980957 22.9903 0.980957 22.5184V1.94542C0.980957 1.47335 1.17354 1.04483 1.4837 0.734672C1.79385 0.424513 2.22257 0.231934 2.69445 0.231934ZM16.7133 7.51539C16.985 7.24351 17.4256 7.24351 17.6975 7.51539C17.9694 7.78727 17.9694 8.2279 17.6975 8.49977L13.9652 12.2318L17.6975 15.9641C17.9694 16.236 17.9694 16.6764 17.6975 16.9485C17.4256 17.2204 16.985 17.2204 16.7133 16.9485L12.9809 13.2162L9.2486 16.9487C8.97672 17.2205 8.5361 17.2205 8.26422 16.9487C7.99234 16.6766 7.99234 16.2362 8.26422 15.9643L11.9965 12.232L8.26441 8.49977C7.99254 8.2279 7.99254 7.78727 8.26441 7.51539C8.53629 7.24351 8.97692 7.24351 9.2488 7.51539L12.9809 11.2476L16.7133 7.51539ZM23.2673 1.62433H2.69445C2.60675 1.62433 2.52667 1.66066 2.46808 1.71906C2.40948 1.77765 2.37316 1.85773 2.37316 1.94542V22.5184C2.37316 22.6059 2.40948 22.6862 2.46808 22.7448C2.52667 22.8032 2.60675 22.8395 2.69445 22.8395H23.2673C23.355 22.8395 23.4352 22.803 23.4936 22.7448C23.5522 22.6862 23.5886 22.6059 23.5886 22.5184V1.94542C23.5886 1.85773 23.552 1.77765 23.4936 1.71906C23.4354 1.66066 23.3552 1.62433 23.2673 1.62433Z" fill="#EA1313"/>
</svg>
