<svg width="33" height="29" viewBox="0 0 33 29" fill="none" xmlns="http://www.w3.org/2000/svg">
<path d="M1.23359 2.09918C0.686611 2.09918 0.217773 1.63034 0.217773 1.05732C0.217773 0.510341 0.686611 0.0415039 1.23359 0.0415039H3.89033C3.91638 0.0415039 3.96847 0.0415039 3.99452 0.0415039C4.93219 0.0675504 5.76568 0.249876 6.46894 0.692667C7.25033 1.18755 7.82335 1.9429 8.13591 3.0629C8.13591 3.08895 8.13591 3.11499 8.16196 3.14104L8.42242 4.1829H31.2131C31.7861 4.1829 32.2289 4.65174 32.2289 5.19871C32.2289 5.3029 32.2029 5.40709 32.1768 5.51127L29.5201 16.2164C29.4159 16.6852 28.9992 16.9978 28.5303 16.9978H11.8606C12.2252 18.3522 12.5899 19.0815 13.0848 19.4201C13.6838 19.8108 14.7257 19.8369 16.4708 19.8108H16.4968H28.2699C28.8429 19.8108 29.2857 20.2796 29.2857 20.8266C29.2857 21.3996 28.8168 21.8424 28.2699 21.8424H16.4968C14.335 21.8685 13.0066 21.8164 11.9387 21.1131C10.8448 20.3838 10.2717 19.1336 9.6987 16.8675L6.20847 3.66197C6.20847 3.63592 6.20847 3.63592 6.18242 3.60988C6.02615 3.03685 5.76568 2.64616 5.40103 2.43778C5.03638 2.20336 4.54149 2.09918 3.96847 2.09918C3.94242 2.09918 3.91638 2.09918 3.89033 2.09918H1.23359ZM25.2224 23.0406C26.6029 23.0406 27.7229 24.1606 27.7229 25.541C27.7229 26.9215 26.6029 28.0415 25.2224 28.0415C23.842 28.0415 22.722 26.9215 22.722 25.541C22.722 24.1606 23.842 23.0406 25.2224 23.0406ZM14.2568 23.0406C15.6373 23.0406 16.7573 24.1606 16.7573 25.541C16.7573 26.9215 15.6373 28.0415 14.2568 28.0415C12.8764 28.0415 11.7564 26.9215 11.7564 25.541C11.7564 24.1606 12.8764 23.0406 14.2568 23.0406ZM8.99545 6.21453L11.3136 14.9401H27.7489L29.9108 6.21453H8.99545Z" fill="#015F99"/>
</svg>
