<svg width="36" height="36" viewBox="0 0 36 36" fill="none" xmlns="http://www.w3.org/2000/svg">
<path d="M34.9717 4.92023C34.4421 4.38973 33.5828 4.38881 33.0532 4.91798L16.7764 21.1519L10.9038 14.7736C10.3963 14.2228 9.53835 14.1871 8.98661 14.6944C8.43529 15.2019 8.39999 16.0603 8.90744 16.6116L15.7366 24.0282C15.9867 24.3 16.3367 24.4579 16.7058 24.4656C16.7157 24.466 16.7253 24.466 16.7348 24.466C17.0934 24.466 17.4385 24.3235 17.6926 24.0703L34.969 6.83913C35.5 6.31003 35.5009 5.45074 34.9717 4.92023Z" fill="#09B658"/>
<path d="M34.6432 16.6432C33.8938 16.6432 33.2864 17.2505 33.2864 18C33.2864 26.4293 26.4293 33.2864 18 33.2864C9.57122 33.2864 2.71357 26.4293 2.71357 18C2.71357 9.57122 9.57122 2.71357 18 2.71357C18.7494 2.71357 19.3568 2.10621 19.3568 1.35682C19.3568 0.607359 18.7494 0 18 0C8.07469 0 0 8.07469 0 18C0 27.9249 8.07469 36 18 36C27.9249 36 36 27.9249 36 18C36 17.2506 35.3926 16.6432 34.6432 16.6432Z" fill="#09B658"/>
</svg>
