<svg width="22" height="25" viewBox="0 0 22 25" fill="none" xmlns="http://www.w3.org/2000/svg">
<path d="M6.32178 17.2974C5.98193 17.2974 5.70459 17.0181 5.70459 16.6743C5.70459 16.3306 5.97998 16.0513 6.32178 16.0513H10.3257C10.6655 16.0513 10.9429 16.3306 10.9429 16.6743C10.9429 17.0181 10.6675 17.2974 10.3257 17.2974H6.32178ZM6.32178 8.5708C5.98193 8.5708 5.70654 8.29541 5.70654 7.95557C5.70654 7.61572 5.98193 7.34033 6.32178 7.34033H14.4487C14.7886 7.34033 15.064 7.61572 15.064 7.95557C15.064 8.29541 14.7886 8.5708 14.4487 8.5708H6.32178ZM11.2651 23.0845C11.605 23.0845 11.8804 23.3599 11.8804 23.6997C11.8804 24.0396 11.605 24.3149 11.2651 24.3149H1.59326C1.19873 24.3149 0.841309 24.1548 0.581543 23.895C0.321777 23.6353 0.161621 23.2778 0.161621 22.8833V1.74658C0.161621 1.35205 0.321777 0.994629 0.581543 0.734863C0.841309 0.475098 1.19873 0.314941 1.59326 0.314941H19.1753C19.5698 0.314941 19.9272 0.475098 20.187 0.734863C20.4468 0.994629 20.6069 1.35205 20.6069 1.74658V14.4946C20.6069 14.8345 20.3315 15.1099 19.9917 15.1099C19.6519 15.1099 19.3765 14.8345 19.3765 14.4946V1.74658C19.3765 1.69189 19.353 1.64111 19.3179 1.604C19.2808 1.56689 19.23 1.54541 19.1753 1.54541H1.59326C1.53857 1.54541 1.48779 1.56885 1.45068 1.604C1.41553 1.64307 1.39209 1.69189 1.39209 1.74658V22.8813C1.39209 22.936 1.41553 22.9868 1.45068 23.0239C1.48779 23.061 1.53857 23.0825 1.59326 23.0825H11.2651V23.0845ZM16.4409 16.6626C16.4409 16.3247 16.7163 16.0493 17.0542 16.0493C17.3921 16.0493 17.6675 16.3247 17.6675 16.6626L17.6597 19.4673L20.4604 19.4751C20.7983 19.4751 21.0737 19.7505 21.0737 20.0884C21.0737 20.4263 20.7983 20.7017 20.4604 20.7017L17.6577 20.6938L17.6499 23.4946C17.6499 23.8325 17.3745 24.1079 17.0366 24.1079C16.6987 24.1079 16.4233 23.8325 16.4233 23.4946L16.4312 20.6919L13.6304 20.6841C13.2925 20.6841 13.0171 20.4087 13.0171 20.0708C13.0171 19.7329 13.2925 19.4575 13.6304 19.4575L16.4351 19.4653L16.4409 16.6626ZM6.32178 12.9302C5.98193 12.9302 5.70654 12.6548 5.70654 12.3149C5.70654 11.9751 5.98193 11.6997 6.32178 11.6997H14.4487C14.7886 11.6997 15.064 11.9751 15.064 12.3149C15.064 12.6548 14.7886 12.9302 14.4487 12.9302H6.32178Z" fill="black"/>
</svg>
