<svg width="16" height="22" viewBox="0 0 16 22" fill="none" xmlns="http://www.w3.org/2000/svg">
<path d="M7.81168 0.949219C3.7378 0.949219 0.423584 4.26343 0.423584 8.33731C0.423584 9.67847 1.02506 11.1209 1.05027 11.1817C1.24453 11.6428 1.62784 12.359 1.90424 12.7789L6.96987 20.4542C7.17717 20.7689 7.48399 20.9492 7.81168 20.9492C8.13936 20.9492 8.44618 20.7689 8.65348 20.4547L13.7195 12.7789C13.9964 12.359 14.3793 11.6428 14.5735 11.1817C14.5987 11.1213 15.1998 9.6789 15.1998 8.33731C15.1998 4.26343 11.8856 0.949219 7.81168 0.949219ZM13.7721 10.8445C13.5987 11.2578 13.2419 11.924 12.9938 12.3004L7.92771 19.9762C7.82776 20.1278 7.79603 20.1278 7.69607 19.9762L2.63002 12.3004C2.38186 11.924 2.02506 11.2573 1.85166 10.844C1.84427 10.8262 1.29277 9.49854 1.29277 8.33731C1.29277 4.74279 4.21715 1.81841 7.81168 1.81841C11.4062 1.81841 14.3306 4.74279 14.3306 8.33731C14.3306 9.50028 13.7778 10.8314 13.7721 10.8445Z" fill="#015F99"/>
<path fill-rule="evenodd" clip-rule="evenodd" d="M0.773753 11.2982L0.773057 11.2965L0.772246 11.2945C0.737095 11.2099 0.123535 9.73177 0.123535 8.33726C0.123535 4.0977 3.57206 0.64917 7.81163 0.64917C12.0512 0.64917 15.4997 4.0977 15.4997 8.33726C15.4997 9.74118 14.8788 11.2291 14.8505 11.2967L14.8499 11.2982C14.6485 11.7763 14.2569 12.5088 13.9699 12.944L8.90385 20.6198C8.65072 21.0035 8.25654 21.2492 7.81163 21.2492C7.36673 21.2492 6.97257 21.0035 6.71943 20.6194M6.71943 20.6194L1.65381 12.9441C1.36745 12.5091 0.975247 11.7764 0.773753 11.2982M6.96982 20.4542C7.17712 20.7688 7.48394 20.9492 7.81163 20.9492C8.13931 20.9492 8.44613 20.7688 8.65343 20.4546L13.7195 12.7788C13.9963 12.359 14.3792 11.6428 14.5735 11.1817C14.5987 11.1213 15.1997 9.67885 15.1997 8.33726C15.1997 4.26338 11.8855 0.94917 7.81163 0.94917C3.73775 0.94917 0.423535 4.26338 0.423535 8.33726C0.423535 9.67024 1.0177 11.1032 1.04969 11.1804L1.05022 11.1817C1.24448 11.6428 1.62779 12.359 1.9042 12.7788L6.96982 20.4542ZM13.4954 10.7284L13.4968 10.7252C13.4967 10.7253 13.4969 10.725 13.4972 10.7241C13.5056 10.7036 13.6355 10.3869 13.7653 9.93864C13.901 9.46969 14.0305 8.87749 14.0305 8.33726C14.0305 4.90842 11.2405 2.11836 7.81163 2.11836C4.38279 2.11836 1.59272 4.90842 1.59272 8.33726C1.59272 9.42491 2.11369 10.6927 2.12851 10.7286C2.29468 11.1244 2.64238 11.7741 2.88039 12.1351C2.8804 12.1351 2.88037 12.1351 2.88039 12.1351L7.81184 19.607L12.7433 12.1352C12.7433 12.1351 12.7432 12.1352 12.7433 12.1352C12.9814 11.7739 13.3294 11.1241 13.4954 10.7284ZM1.85161 10.844C1.84226 10.8215 1.29272 9.49638 1.29272 8.33726C1.29272 4.74274 4.2171 1.81836 7.81163 1.81836C11.4062 1.81836 14.3305 4.74274 14.3305 8.33726C14.3305 9.50023 13.7777 10.8314 13.7721 10.8444C13.5987 11.2577 13.2419 11.924 12.9937 12.3003L7.92766 19.9761C7.82771 20.1278 7.79598 20.1278 7.69602 19.9761L2.62997 12.3003C2.38181 11.924 2.02501 11.2573 1.85161 10.844Z" fill="#015F99"/>
<path d="M7.81173 4.42651C5.65485 4.42651 3.90039 6.1814 3.90039 8.33786C3.90039 10.4943 5.65485 12.2492 7.81173 12.2492C9.96862 12.2492 11.7231 10.4943 11.7231 8.33786C11.7231 6.1814 9.96862 4.42651 7.81173 4.42651ZM7.81173 11.38C6.13464 11.38 4.76958 10.0154 4.76958 8.33786C4.76958 6.66032 6.13464 5.2957 7.81173 5.2957C9.48883 5.2957 10.8539 6.66032 10.8539 8.33786C10.8539 10.0154 9.48883 11.38 7.81173 11.38Z" fill="#015F99"/>
<path fill-rule="evenodd" clip-rule="evenodd" d="M3.60034 8.33781C3.60034 6.01569 5.48909 4.12646 7.81168 4.12646C10.1343 4.12646 12.023 6.01569 12.023 8.33781C12.023 10.6599 10.1343 12.5492 7.81168 12.5492C5.48909 12.5492 3.60034 10.6599 3.60034 8.33781ZM5.06953 8.33781C5.06953 9.84963 6.30025 11.08 7.81168 11.08C9.32312 11.08 10.5538 9.84963 10.5538 8.33781C10.5538 6.82599 9.32312 5.59565 7.81168 5.59565C6.30025 5.59565 5.06953 6.82599 5.06953 8.33781ZM3.90034 8.33781C3.90034 6.18135 5.6548 4.42646 7.81168 4.42646C9.96857 4.42646 11.723 6.18135 11.723 8.33781C11.723 10.4943 9.96857 12.2492 7.81168 12.2492C5.6548 12.2492 3.90034 10.4943 3.90034 8.33781ZM4.76953 8.33781C4.76953 10.0153 6.13459 11.38 7.81168 11.38C9.48878 11.38 10.8538 10.0153 10.8538 8.33781C10.8538 6.66028 9.48878 5.29565 7.81168 5.29565C6.13459 5.29565 4.76953 6.66028 4.76953 8.33781Z" fill="#015F99"/>
</svg>
