<svg width="272" height="47" viewBox="0 0 272 47" fill="none" xmlns="http://www.w3.org/2000/svg">
<path fill-rule="evenodd" clip-rule="evenodd" d="M1.45874 25.2674H8.58846V20.1143C13.8828 19.6907 19.4595 20.9614 23.695 18.6319C31.5306 14.3258 30.3306 1.68994 18.1183 0.70166H1.52933L1.45874 25.2674ZM8.58846 13.9728C11.2003 14.114 14.0946 13.9728 16.7065 13.9728C19.3183 13.9728 21.5067 13.1257 21.4361 10.4433C21.4361 7.76079 19.4595 6.8431 16.8476 6.77251C14.2358 6.70192 11.2003 6.63133 8.65905 6.77251L8.58846 13.9728Z" fill="#015F99"/>
<path fill-rule="evenodd" clip-rule="evenodd" d="M90.1919 25.2674H115.534V19.126H97.3216V15.8082H113.063L113.134 9.73735H97.3922L97.3216 6.77251H114.899V0.70166H90.2625L90.1919 25.2674Z" fill="#015F99"/>
<path fill-rule="evenodd" clip-rule="evenodd" d="M31.0366 25.1968L56.3789 25.2674V19.126H38.1663V15.8082H53.9082L53.9788 9.80794L38.2369 9.73735L38.1663 6.77251H55.7436V0.70166H31.1072L31.0366 25.1968Z" fill="#015F99"/>
<path fill-rule="evenodd" clip-rule="evenodd" d="M177.019 25.2674H184.431C184.996 25.1263 186.126 22.232 186.267 21.7379H201.444C201.867 22.7261 202.503 24.2792 203.138 25.1968L210.621 25.2674L199.114 0.70166H188.879L180.055 18.9142C179.419 20.2555 177.302 24.3497 177.019 25.2674ZM189.09 15.8788H191.067H196.502H197.844H198.479L194.455 6.70192H193.255L189.09 15.8788Z" fill="#015F99"/>
<path fill-rule="evenodd" clip-rule="evenodd" d="M59.4143 25.2674H66.544V15.5964H79.674L79.7446 25.2674H86.8743V0.70166H79.8152L79.7446 9.59616H66.544V0.70166H59.4849L59.4143 25.2674Z" fill="#015F99"/>
<path fill-rule="evenodd" clip-rule="evenodd" d="M212.668 25.2674H219.798V15.5964H232.928C233.069 17.5024 232.645 24.138 233.069 25.2674H239.987L240.057 0.70166H232.928V9.59616H219.798V0.70166H212.739L212.668 25.2674Z" fill="#015F99"/>
<path fill-rule="evenodd" clip-rule="evenodd" d="M164.948 0.136719H161.913C160.36 0.77204 153.442 0.419085 149.771 6.91348C147.018 11.8549 148.077 17.5022 151.183 21.1729C155.56 26.3261 165.866 27.385 172.572 23.4318C174.054 22.5848 176.525 20.3258 177.09 18.7022C176.455 18.2081 172.431 16.0904 171.584 15.808C170.948 16.3727 170.595 17.008 169.89 17.5728C169.254 18.1375 168.689 18.4905 167.842 18.914C166.148 19.6905 164.03 19.9729 161.913 19.7611C153.23 18.9846 152.736 6.98407 162.054 6.13698C164.172 5.9252 166.36 6.27816 167.984 7.05467C170.101 8.11354 170.384 9.03122 171.584 10.1607L177.09 7.19585C176.455 5.50166 173.984 3.31333 172.36 2.32505C168.831 0.277901 166.431 0.77204 164.948 0.136719Z" fill="#015F99"/>
<path fill-rule="evenodd" clip-rule="evenodd" d="M271.894 19.126C271.753 18.4201 272.176 18.773 270.553 17.9965C270.059 17.7848 269.706 17.573 269.212 17.2906C268.294 16.7965 267.306 16.1612 266.388 15.8788L265.964 16.3023C264.976 17.3612 264.129 18.2789 262.717 18.9848C258.27 21.032 250.081 19.9731 250.081 13.0551C250.081 5.64305 258.905 5.29009 262.717 7.12547C264.058 7.76079 265.682 9.10202 266.247 10.2315L271.612 7.54901C271.753 7.40783 271.823 7.40783 271.965 7.33724C270.835 4.51359 266.882 1.83112 263.564 0.913432C262.576 0.631067 260.105 0.419293 259.541 0.20752H256.364C255.729 0.489885 253.399 0.77225 252.411 1.05462C241.54 4.30181 240.975 16.1612 246.128 21.3143C247.328 22.5144 247.116 22.4438 248.74 23.5026C251.846 25.4792 256.293 26.3263 260.105 25.8322C269.847 24.5615 270.694 19.7613 271.894 19.126Z" fill="#015F99"/>
<path fill-rule="evenodd" clip-rule="evenodd" d="M133.818 0.136719H131.064C129.794 0.630858 127.394 0.277901 123.794 2.32505C116.382 6.56053 115.958 16.1609 120.617 21.1729C122.17 22.7965 123.723 23.9966 126.405 24.8437C131.206 26.4673 137.629 26.0437 141.936 23.5024C143.347 22.6553 145.959 20.2552 146.453 18.7022C146.03 18.3493 141.512 15.9492 140.806 15.7374C138.194 21.3141 124.641 21.8082 124.641 12.9137C124.641 8.81945 127.464 6.48994 131.347 6.13698C135.865 5.71343 138.335 7.05467 140.877 10.0195C141.583 9.94891 146.03 7.6194 146.524 7.12526C145.747 5.28988 143.277 3.17214 141.512 2.11328C137.982 0.20731 135.229 0.630858 133.818 0.136719Z" fill="#015F99"/>
<path fill-rule="evenodd" clip-rule="evenodd" d="M186.337 41.0091H187.326H267.447H268.929V38.3972H268.153H266.811H187.184H186.337V41.0091Z" fill="#015F99"/>
<path fill-rule="evenodd" clip-rule="evenodd" d="M0.9646 41.0091H83.5564V38.3972L0.9646 38.4678V41.0091Z" fill="#015F99"/>
<path fill-rule="evenodd" clip-rule="evenodd" d="M112.005 46.3739H115.252V43.1267C118.075 43.1267 121.464 43.5503 123.793 42.3502C128.029 40.1619 127.605 32.3262 120.97 31.9027C119.346 31.7615 113.416 31.6909 112.005 31.9027V46.3739ZM115.322 40.1619C118.287 40.1619 123.299 41.0796 123.299 37.6206C123.299 34.0204 118.852 34.8675 115.322 34.9381C115.322 34.8675 115.322 40.1619 115.322 40.1619Z" fill="#015F99"/>
<path fill-rule="evenodd" clip-rule="evenodd" d="M162.407 46.3738H165.584L165.654 34.7969H173.419V46.3738H176.666V31.832H162.407V46.3738Z" fill="#015F99"/>
<path fill-rule="evenodd" clip-rule="evenodd" d="M145.535 46.3738H148.641L148.712 34.7969H156.477L156.548 46.3738H159.724V31.832L145.465 31.9026L145.535 46.3738Z" fill="#015F99"/>
<path fill-rule="evenodd" clip-rule="evenodd" d="M131.417 46.3738H136.006C137.771 45.5267 138.265 45.8091 139.253 44.1149C139.818 43.1266 143.347 32.3262 143.347 31.9026H140.1L137.841 38.8206C136.641 38.8206 135.37 38.8912 134.241 38.8206C132.829 38.8206 132.759 38.2558 132.406 37.1264C132.123 36.2087 131.841 35.3616 131.488 34.4439L130.711 32.185C130.711 32.185 130.641 32.1144 130.641 32.0438C130.641 31.9732 130.57 31.9732 130.57 31.832H127.323C127.394 32.6791 129.3 37.9735 129.723 39.0323C131.064 42.1384 133.323 41.5736 136.923 41.6442C136.712 42.9149 136.429 43.4796 134.947 43.5502C133.817 43.5502 132.547 43.5502 131.347 43.5502L131.417 46.3738Z" fill="#015F99"/>
<path fill-rule="evenodd" clip-rule="evenodd" d="M96.5452 46.374H99.7924L99.863 34.8677L109.958 34.7265V31.9028H96.5452V46.374Z" fill="#015F99"/>
</svg>
