<svg width="20" height="15" viewBox="0 0 20 15" fill="none" xmlns="http://www.w3.org/2000/svg">
<path d="M17.5828 0.0415039H2.02725C1.16931 0.0415039 0.47168 0.739134 0.47168 1.59707V12.486C0.47168 13.3439 1.16931 14.0415 2.02725 14.0415H17.5828C18.4407 14.0415 19.1383 13.3439 19.1383 12.4859V1.59707C19.1383 0.739134 18.4407 0.0415039 17.5828 0.0415039ZM2.02725 0.81927H17.5828C17.6401 0.81927 17.6906 0.84016 17.7444 0.851973C16.3977 2.08452 11.9321 6.16975 10.3694 7.57773C10.2471 7.68787 10.05 7.81927 9.80505 7.81927C9.56009 7.81927 9.36299 7.68787 9.24031 7.57737C7.67774 6.1696 3.21192 2.08415 1.86541 0.852046C1.91929 0.840233 1.9699 0.81927 2.02725 0.81927ZM1.24945 12.4859V1.59707C1.24945 1.52087 1.27241 1.45175 1.29298 1.38211C2.32373 2.32551 5.4396 5.17597 7.45998 7.01321C5.44616 8.74305 2.32949 11.6979 1.29053 12.6886C1.2722 12.6225 1.24945 12.5578 1.24945 12.4859ZM17.5828 13.2637H2.02725C1.96512 13.2637 1.90989 13.2421 1.85188 13.2282C2.92547 12.2048 6.06198 9.2329 8.04039 7.5404C8.2983 7.77435 8.53389 7.98767 8.71961 8.15501C9.04015 8.44442 9.41535 8.59707 9.80501 8.59707C10.1947 8.59707 10.5699 8.44438 10.89 8.15538C11.0758 7.98796 11.3116 7.77446 11.5696 7.5404C13.5482 9.23272 16.6842 12.2044 17.7581 13.2282C17.7001 13.2421 17.645 13.2637 17.5828 13.2637ZM18.3606 12.4859C18.3606 12.5578 18.3378 12.6225 18.3195 12.6886C17.2802 11.6974 14.1639 8.74287 12.1501 7.01325C14.1705 5.176 17.2859 2.3258 18.317 1.38204C18.3376 1.45168 18.3606 1.52084 18.3606 1.59704V12.4859Z" fill="#015F99"/>
</svg>
