<svg width="15" height="15" viewBox="0 0 15 15" fill="none" xmlns="http://www.w3.org/2000/svg">
<path d="M13.7573 11.0434L11.8036 9.08964C11.1058 8.39187 9.91962 8.67101 9.64051 9.57807C9.43118 10.2061 8.73342 10.555 8.10543 10.4154C6.7099 10.0665 4.82594 8.25232 4.47706 6.78702C4.26773 6.159 4.68638 5.46124 5.31437 5.25193C6.22147 4.97283 6.50057 3.78663 5.80281 3.08886L3.84907 1.13513C3.29086 0.64669 2.45354 0.64669 1.9651 1.13513L0.639353 2.46088C-0.686399 3.85641 0.778906 7.55456 4.0584 10.834C7.33789 14.1135 11.036 15.6486 12.4316 14.2531L13.7573 12.9273C14.2458 12.3691 14.2458 11.5318 13.7573 11.0434Z" fill="#015F99"/>
</svg>
