<svg width="20" height="25" viewBox="0 0 20 25" fill="none" xmlns="http://www.w3.org/2000/svg">
<path d="M17.928 10.2905C18.16 9.98527 18.5963 9.92573 18.9016 10.1569C19.2073 10.3885 19.2669 10.824 19.0349 11.1287L10.6797 22.0978C9.73756 23.3308 8.37703 24.0682 6.94464 24.2628C5.53433 24.4545 4.04981 24.1203 2.82218 23.2136C2.77909 23.1874 2.7388 23.157 2.70195 23.1226C1.49734 22.1831 0.775977 20.8423 0.583896 19.4325C0.391815 18.0237 0.727605 16.5418 1.63541 15.3167C1.6603 15.2755 1.68989 15.2366 1.72276 15.2009L11.7716 2.00965C12.5413 1.10811 13.3951 0.542238 14.3447 0.37018C15.3032 0.196246 16.3143 0.428782 17.3856 1.12873L17.4311 1.16108L17.4433 1.17046L17.4448 1.1714C17.9557 1.56521 18.3375 2.00403 18.5991 2.4766C18.88 2.98527 19.0199 3.53145 19.0298 4.10248C19.0425 4.87088 18.8598 5.51035 18.5662 6.09779C18.2962 6.63928 17.929 7.12967 17.5368 7.64443L8.22863 19.8652C7.83507 20.3819 7.26681 20.6908 6.66944 20.7719C6.09836 20.8498 5.49629 20.7185 4.99237 20.3617C4.94728 20.335 4.90501 20.3031 4.86603 20.2656C4.3856 19.8756 4.09771 19.3303 4.01928 18.7583C3.93897 18.1634 4.08503 17.5352 4.47765 17.0195L12.5197 6.46113C12.7512 6.15639 13.1875 6.09685 13.4932 6.32798C13.7985 6.55958 13.8581 6.99512 13.6266 7.29985L5.58458 17.8582C5.4249 18.0682 5.36573 18.327 5.39907 18.5736C5.43241 18.8184 5.55875 19.0504 5.7682 19.2094L5.77055 19.2117C5.98001 19.3692 6.23831 19.4278 6.4844 19.3945C6.73002 19.3613 6.96249 19.2356 7.12169 19.0265L16.4299 6.80571C16.7708 6.35798 17.0907 5.93089 17.3175 5.47707C17.5208 5.07013 17.6472 4.63412 17.6392 4.12404C17.6335 3.78415 17.5481 3.45597 17.3776 3.14655C17.2104 2.84416 16.9577 2.55536 16.6121 2.28673C15.8602 1.79775 15.1891 1.6285 14.5898 1.7368C13.9784 1.84791 13.3923 2.25391 12.8287 2.91214L2.7879 16.095C2.07875 17.0256 1.81622 18.1639 1.96369 19.2473C2.10833 20.3092 2.64841 21.3177 3.54965 22.0237C3.58487 22.0453 3.61868 22.0706 3.65015 22.0997C4.57392 22.7794 5.69353 23.0303 6.7596 22.8854C7.82427 22.741 8.83493 22.2004 9.54173 21.2998C9.56427 21.2642 9.5901 21.2305 9.61922 21.1981L17.928 10.2905Z" fill="#31A8F1"/>
</svg>
