<svg width="30" height="29" viewBox="0 0 30 29" fill="none" xmlns="http://www.w3.org/2000/svg">
<path d="M12.1707 0.0415039H12.1745V0.04314C15.3996 0.0440749 18.32 1.35223 20.4334 3.46604C22.5432 5.5768 23.8502 8.49462 23.8523 11.7172H23.8539V11.7249V11.7343H23.8523C23.8511 13.0331 23.638 14.283 23.246 15.4486C23.1803 15.6443 23.1116 15.8322 23.041 16.0117V16.0133C22.7031 16.8687 22.2662 17.6774 21.7446 18.4223L28.5417 24.5316L28.5459 24.5354L28.5826 24.5695L28.5852 24.5721C28.969 24.9374 29.1779 25.4266 29.2043 25.923C29.2301 26.4138 29.0774 26.9159 28.7418 27.3186L28.7392 27.3223L28.6983 27.3698L28.6901 27.3779L28.656 27.4153L28.6523 27.4202C28.2865 27.804 27.7983 28.0125 27.3014 28.0387C26.8112 28.0646 26.3087 27.9125 25.9058 27.5764L25.9023 27.5738L25.8546 27.5329L25.8478 27.5273L18.8957 21.2789C18.69 21.4238 18.4801 21.5615 18.2677 21.6914C17.9795 21.8679 17.681 22.0341 17.3765 22.1857C15.8108 22.9668 14.0415 23.4063 12.171 23.4063V23.4079H12.1672V23.4063C8.94206 23.4053 6.0212 22.0972 3.90786 19.9834C1.79733 17.8726 0.491044 14.9543 0.488941 11.7326H0.487305V11.7249V11.7212H0.488941C0.489876 8.49602 1.79803 5.57517 3.91184 3.46183C6.0226 1.35223 8.94042 0.0452435 12.163 0.04314V0.0415039H12.1707ZM12.1745 2.66156V2.66319H12.1707H12.163V2.66156C9.66544 2.66319 7.40158 3.67826 5.7627 5.31643C4.12406 6.95461 3.10806 9.2208 3.10736 11.7214H3.10899V11.7252V11.7329H3.10736C3.10899 14.2305 4.12336 16.4931 5.76223 18.1325C7.40041 19.7714 9.6666 20.7874 12.167 20.7878V20.7862H12.1707H12.1784V20.7878C14.676 20.7862 16.9389 19.7716 18.5783 18.133C20.2169 16.4948 21.2329 14.2293 21.2334 11.7289H21.232V11.7252V11.7174H21.2334C21.232 9.21987 20.2167 6.95601 18.5788 5.31714C16.9406 3.67826 14.6751 2.66226 12.1745 2.66156Z" fill="#015F99"/>
</svg>
