<svg width="24" height="24" viewBox="0 0 24 24" fill="none" xmlns="http://www.w3.org/2000/svg">
<g filter="url(#filter0_i_2005_1237)">
<circle cx="11.8208" cy="12.1794" r="11.8208" fill="#370E61"/>
</g>
<path fill-rule="evenodd" clip-rule="evenodd" d="M9.13757 12.4904H10.5452V11.473C11.5905 11.3894 12.6915 11.6402 13.5277 11.1803C15.0747 10.3302 14.8377 7.8355 12.4267 7.64038H9.15151L9.13757 12.4904ZM10.5452 10.2605C11.0609 10.2884 11.6323 10.2605 12.1479 10.2605C12.6636 10.2605 13.0956 10.0933 13.0817 9.56366C13.0817 9.03406 12.6915 8.85288 12.1758 8.83895C11.6601 8.82501 11.0609 8.81107 10.5591 8.83895L10.5452 10.2605Z" fill="#13D5FF"/>
<path fill-rule="evenodd" clip-rule="evenodd" d="M1.75061 10.3233H7.21466V9.80762L1.75061 9.82155V10.3233Z" fill="#13D5FF"/>
<path fill-rule="evenodd" clip-rule="evenodd" d="M16.427 10.3233H21.8911V9.80762L16.427 9.82155V10.3233Z" fill="#13D5FF"/>
<path fill-rule="evenodd" clip-rule="evenodd" d="M7.21484 16.7182H7.85594V16.0771C8.41341 16.0771 9.08238 16.1607 9.54229 15.9238C10.3785 15.4917 10.2949 13.9447 8.98482 13.8611C8.66427 13.8332 7.49358 13.8193 7.21484 13.8611V16.7182ZM7.86987 15.4917C8.45522 15.4917 9.44473 15.6729 9.44473 14.99C9.44473 14.2792 8.56671 14.4465 7.86987 14.4604C7.86987 14.4465 7.86987 15.4917 7.86987 15.4917Z" fill="#13D5FF"/>
<path fill-rule="evenodd" clip-rule="evenodd" d="M17.1658 16.7182H17.7929L17.8069 14.4325H19.3399V16.7182H19.981V13.8472H17.1658V16.7182Z" fill="#13D5FF"/>
<path fill-rule="evenodd" clip-rule="evenodd" d="M13.8349 16.7182H14.4481L14.462 14.4325H15.9951L16.009 16.7182H16.6362V13.8472L13.8209 13.8611L13.8349 16.7182Z" fill="#13D5FF"/>
<path fill-rule="evenodd" clip-rule="evenodd" d="M11.0475 16.7182H11.9534C12.3018 16.5509 12.3993 16.6067 12.5945 16.2722C12.706 16.0771 13.4028 13.9447 13.4028 13.8611H12.7617L12.3157 15.2269C12.0788 15.2269 11.8279 15.2408 11.6049 15.2269C11.3262 15.2269 11.3123 15.1154 11.2426 14.8924C11.1868 14.7113 11.1311 14.544 11.0614 14.3628L10.9081 13.9169C10.9081 13.9169 10.8942 13.9029 10.8942 13.889C10.8942 13.875 10.8802 13.875 10.8802 13.8472H10.2391C10.2531 14.0144 10.6294 15.0597 10.713 15.2687C10.9778 15.8819 11.4238 15.7704 12.1345 15.7844C12.0927 16.0352 12.037 16.1467 11.7443 16.1607C11.5213 16.1607 11.2705 16.1607 11.0335 16.1607L11.0475 16.7182Z" fill="#13D5FF"/>
<path fill-rule="evenodd" clip-rule="evenodd" d="M4.16272 16.7181H4.80381L4.81775 14.4464L6.81071 14.4186V13.8611H4.16272V16.7181Z" fill="#13D5FF"/>
<defs>
<filter id="filter0_i_2005_1237" x="0" y="0.358643" width="23.6416" height="27.6416" filterUnits="userSpaceOnUse" color-interpolation-filters="sRGB">
<feFlood flood-opacity="0" result="BackgroundImageFix"/>
<feBlend mode="normal" in="SourceGraphic" in2="BackgroundImageFix" result="shape"/>
<feColorMatrix in="SourceAlpha" type="matrix" values="0 0 0 0 0 0 0 0 0 0 0 0 0 0 0 0 0 0 127 0" result="hardAlpha"/>
<feOffset dy="4"/>
<feGaussianBlur stdDeviation="2"/>
<feComposite in2="hardAlpha" operator="arithmetic" k2="-1" k3="1"/>
<feColorMatrix type="matrix" values="0 0 0 0 0.0743179 0 0 0 0 0.603382 0 0 0 0 0.719517 0 0 0 0.25 0"/>
<feBlend mode="normal" in2="shape" result="effect1_innerShadow_2005_1237"/>
</filter>
</defs>
</svg>
