<svg width="800" height="137" viewBox="0 0 800 137" fill="none" xmlns="http://www.w3.org/2000/svg">
<path fill-rule="evenodd" clip-rule="evenodd" d="M1.45862 74.1859H22.5058V58.9736C38.1348 57.7233 54.5975 61.4742 67.1007 54.5975C90.2317 41.8858 86.6891 4.58442 50.6381 1.66699H1.66701L1.45862 74.1859ZM22.5058 40.8439C30.2161 41.2606 38.76 40.8439 46.4703 40.8439C54.1807 40.8439 60.6407 38.3432 60.4323 30.4245C60.4323 22.5058 54.5975 19.7967 46.8871 19.5883C39.1768 19.3799 30.2161 19.1716 22.7142 19.5883L22.5058 40.8439Z" fill="white"/>
<path fill-rule="evenodd" clip-rule="evenodd" d="M263.402 74.1859H338.213V56.0562H284.449V46.2619H330.919L331.128 28.3406H284.657L284.449 19.5883H336.337V1.66699H263.61L263.402 74.1859Z" fill="white"/>
<path fill-rule="evenodd" clip-rule="evenodd" d="M88.7733 73.9775L163.584 74.1859V56.0562H109.82V46.2619H156.291L156.499 28.549L110.029 28.3406L109.82 19.5883H161.709V1.66699H88.9817L88.7733 73.9775Z" fill="white"/>
<path fill-rule="evenodd" clip-rule="evenodd" d="M519.719 74.1859H541.599C543.266 73.7691 546.601 65.2252 547.017 63.7665H591.821C593.071 66.6839 594.946 71.2685 596.822 73.9775L618.911 74.1859L584.944 1.66699H554.728L528.679 55.431C526.804 59.3904 520.552 71.4768 519.719 74.1859ZM555.353 46.4703H561.188H577.234H581.193H583.068L571.19 19.3799H567.648L555.353 46.4703Z" fill="white"/>
<path fill-rule="evenodd" clip-rule="evenodd" d="M172.545 74.1859H193.592V45.6368H232.352L232.561 74.1859H253.608V1.66699H232.769L232.561 27.9238H193.592V1.66699H172.753L172.545 74.1859Z" fill="white"/>
<path fill-rule="evenodd" clip-rule="evenodd" d="M624.954 74.1859H646.001V45.6368H684.761C685.178 51.2632 683.928 70.8517 685.178 74.1859H705.6L705.809 1.66699H684.761V27.9238H646.001V1.66699H625.163L624.954 74.1859Z" fill="white"/>
<path fill-rule="evenodd" clip-rule="evenodd" d="M484.085 0H475.124C470.539 1.87549 450.117 0.833552 439.281 20.0052C431.154 34.5923 434.28 51.2634 443.449 62.0995C456.369 77.3118 486.794 80.4376 506.59 68.7679C510.967 66.2673 518.26 59.5989 519.927 54.8059C518.052 53.3472 506.174 47.0956 503.673 46.2621C501.798 47.9292 500.756 49.8046 498.672 51.4717C496.796 53.1388 495.129 54.1808 492.628 55.4311C487.627 57.7234 481.376 58.5569 475.124 57.9318C449.492 55.6395 448.034 20.2136 475.541 17.7129C481.792 17.0878 488.252 18.1297 493.045 20.422C499.297 23.5478 500.13 26.2568 503.673 29.591L519.927 20.8388C518.052 15.8375 510.758 9.37744 505.965 6.46002C495.546 0.416775 488.461 1.87549 484.085 0Z" fill="white"/>
<path fill-rule="evenodd" clip-rule="evenodd" d="M799.792 56.0561C799.375 53.9723 800.625 55.0142 795.832 52.7219C794.373 52.0968 793.332 51.4716 791.873 50.6381C789.164 49.1793 786.246 47.3039 783.537 46.4703L782.287 47.7206C779.37 50.8464 776.869 53.5555 772.701 55.6394C759.573 61.6826 735.4 58.5568 735.4 38.1348C735.4 16.2541 761.448 15.2122 772.701 20.6302C776.661 22.5057 781.453 26.4651 783.121 29.7993L798.958 21.8806C799.375 21.4638 799.583 21.4638 800 21.2554C796.666 12.9199 784.996 5.00117 775.202 2.29213C772.284 1.45858 764.991 0.833415 763.324 0.208252H753.946C752.071 1.0418 745.194 1.87535 742.277 2.7089C710.185 12.2947 708.518 47.3039 723.73 62.5161C727.273 66.0587 726.648 65.8503 731.44 68.9762C740.609 74.811 753.738 77.3117 764.991 75.853C793.748 72.102 796.249 57.9316 799.792 56.0561Z" fill="white"/>
<path fill-rule="evenodd" clip-rule="evenodd" d="M392.186 0H384.059C380.308 1.45871 373.222 0.416775 362.595 6.46002C340.714 18.9633 339.464 47.304 353.217 62.0995C357.802 66.8924 362.386 70.435 370.305 72.9357C384.475 77.7286 403.439 76.4782 416.15 68.9763C420.318 66.4756 428.028 59.3905 429.487 54.8059C428.237 53.764 414.9 46.6788 412.816 46.0537C405.106 62.5163 365.095 63.975 365.095 37.7182C365.095 25.6317 373.431 18.7549 384.892 17.7129C398.229 16.4626 405.522 20.422 413.024 29.1743C415.108 28.9659 428.237 22.0891 429.695 20.6304C427.403 15.2123 420.11 8.96067 414.9 5.83485C404.481 0.208387 396.353 1.45871 392.186 0Z" fill="white"/>
<path fill-rule="evenodd" clip-rule="evenodd" d="M547.226 120.656H550.143H786.663H791.039V112.946H788.747H784.788H549.727H547.226V120.656Z" fill="white"/>
<path fill-rule="evenodd" clip-rule="evenodd" d="M0 120.656H243.813V112.946L0 113.154V120.656Z" fill="white"/>
<path fill-rule="evenodd" clip-rule="evenodd" d="M327.794 136.493H337.38V126.908C345.715 126.908 355.718 128.158 362.595 124.615C375.098 118.155 373.847 95.0243 354.259 93.774C349.466 93.3572 331.962 93.1488 327.794 93.774V136.493ZM337.588 118.155C346.34 118.155 361.136 120.864 361.136 110.653C361.136 100.026 348.007 102.526 337.588 102.735C337.588 102.526 337.588 118.155 337.588 118.155Z" fill="white"/>
<path fill-rule="evenodd" clip-rule="evenodd" d="M476.582 136.493H485.96L486.168 102.318H509.091V136.493H518.677V93.5654H476.582V136.493Z" fill="white"/>
<path fill-rule="evenodd" clip-rule="evenodd" d="M426.778 136.493H435.947L436.155 102.318H459.078L459.286 136.493H468.664V93.5654L426.569 93.7738L426.778 136.493Z" fill="white"/>
<path fill-rule="evenodd" clip-rule="evenodd" d="M385.1 136.493H398.645C403.855 133.993 405.314 134.826 408.231 129.825C409.898 126.907 420.318 95.0241 420.318 93.7738H410.732L404.064 114.196C400.521 114.196 396.77 114.404 393.436 114.196C389.268 114.196 389.06 112.529 388.018 109.195C387.184 106.485 386.351 103.985 385.309 101.276L383.016 94.6074C383.016 94.6074 382.808 94.399 382.808 94.1906C382.808 93.9822 382.6 93.9822 382.6 93.5654H373.014C373.222 96.0661 378.849 111.695 380.099 114.821C384.058 123.99 390.727 122.323 401.355 122.531C400.729 126.282 399.896 127.949 395.52 128.158C392.185 128.158 388.434 128.158 384.892 128.158L385.1 136.493Z" fill="white"/>
<path fill-rule="evenodd" clip-rule="evenodd" d="M282.157 136.494H291.742L291.951 102.527L321.75 102.11V93.7744H282.157V136.494Z" fill="white"/>
</svg>
